Coordinates
version=1
nRows=26
nColumns=22
inDegrees=yes

Units are S.I. units (second, meters, Newtons, ...)
If the header above contains a line with 'inDegrees', this indicates whether rotational values are in degrees (yes) or radians (no).

endheader
time	pelvis_tilt	pelvis_list	pelvis_rotation	pelvis_tx	pelvis_ty	pelvis_tz	hip_flexion_r	hip_adduction_r	hip_rotation_r	knee_angle_r	ankle_angle_r	subtalar_angle_r	hip_flexion_l	hip_adduction_l	hip_rotation_l	knee_angle_l	ankle_angle_l	subtalar_angle_l	lumbar_extension	lumbar_bending	lumbar_rotation
      0.01000000	      1.49867580	     -2.56450903	      5.73525378	     -0.95328790	      0.94000875	     -0.61721221	      3.65755312	      1.17780262	    -14.73422888	    -19.14881710	     14.14906509	     -0.39019732	      7.72582631	     -5.55772824	     -8.71883099	    -25.53047243	     14.49279963	      0.20356922	    -10.31495256	     -1.25851432	     -4.45088232
      0.02000000	      1.49281880	     -2.58714340	      5.74493289	     -0.95315626	      0.94004027	     -0.61740867	      3.61398061	      1.19710162	    -14.76513784	    -19.06796490	     14.09849510	     -0.47452958	      7.70916531	     -5.56320495	     -8.69479162	    -25.49923538	     14.52913177	      0.10583098	    -10.30874779	     -1.24860135	     -4.47055631
      0.03000000	      1.46771342	     -2.59944038	      5.72992174	     -0.95298803	      0.94003564	     -0.61762467	      3.59852472	      1.19665053	    -14.78476307	    -19.00929936	     14.10413696	     -0.47647591	      7.70811606	     -5.55956747	     -8.71484999	    -25.47642375	     14.53238202	      0.09733565	    -10.27874320	     -1.25676527	     -4.46570335
      0.04000000	      1.43836302	     -2.61459207	      5.71576931	     -0.95280664	      0.94003321	     -0.61788440	      3.58358442	      1.19852886	    -14.79443584	    -18.94280103	     14.09955255	     -0.47667091	      7.70526629	     -5.55465525	     -8.73396444	    -25.44278799	     14.54003473	      0.08856260	    -10.24612805	     -1.26418977	     -4.46758624
      0.05000000	      1.40777242	     -2.63027759	      5.70081634	     -0.95260971	      0.94003065	     -0.61818515	      3.56895310	      1.19926534	    -14.79619572	    -18.87601270	     14.08788547	     -0.47505809	      7.69911047	     -5.54660732	     -8.75242926	    -25.40394915	     14.55107218	      0.07840510	    -10.21252659	     -1.27150416	     -4.47140845
      0.06000000	      1.37699498	     -2.64418296	      5.68469330	     -0.95239743	      0.94002804	     -0.61851892	      3.55602441	      1.19634441	    -14.79024986	    -18.81414753	     14.07211698	     -0.47147334	      7.68761322	     -5.53388367	     -8.77147361	    -25.35882634	     14.56511189	      0.06574814	    -10.17870832	     -1.28036335	     -4.47640092
      0.07000000	      1.34818249	     -2.65447888	      5.66669363	     -0.95217413	      0.94002547	     -0.61888773	      3.54600328	      1.18638777	    -14.77854138	    -18.76446510	     14.05699319	     -0.46642188	      7.67019786	     -5.51410403	     -8.79034316	    -25.30998672	     14.58037806	      0.05137213	    -10.14617334	     -1.29014565	     -4.48197061
      0.08000000	      1.32677644	     -2.64234016	      5.63266190	     -0.95195656	      0.94004208	     -0.61926172	      3.53757533	      1.15311437	    -14.72317329	    -18.73334886	     14.02923184	     -0.44710903	      7.62745272	     -5.46476006	     -8.81076634	    -25.23931498	     14.60212882	     -0.00234615	    -10.12934133	     -1.32699699	     -4.46470283
      0.09000000	      1.30058568	     -2.65121436	      5.62106714	     -0.95170852	      0.94003352	     -0.61968202	      3.53480186	      1.13664995	    -14.72347667	    -18.70689394	     14.03211170	     -0.44143704	      7.60215991	     -5.44190295	     -8.83745797	    -25.18346724	     14.61117169	     -0.01627440	    -10.09754389	     -1.33261965	     -4.47701534
      0.10000000	      1.27902250	     -2.61404007	      5.59222274	     -0.95146385	      0.94004238	     -0.62011559	      3.53741283	      1.06836576	    -14.67362189	    -18.70831413	     14.03482534	     -0.42225823	      7.54655286	     -5.35852967	     -8.85321974	    -25.09587192	     14.62843222	     -0.06941403	    -10.07863507	     -1.39364915	     -4.45797865
      0.11000000	      1.25343621	     -2.62015040	      5.58460415	     -0.95119966	      0.94002930	     -0.62057672	      3.53996970	      1.04583393	    -14.67071280	    -18.69532955	     14.04118728	     -0.41729917	      7.51468498	     -5.32972784	     -8.88009693	    -25.03060150	     14.63514141	     -0.08368082	    -10.04653212	     -1.39562099	     -4.47258708
      0.12000000	      1.23296289	     -2.56859806	      5.56191591	     -0.95091746	      0.94003398	     -0.62103482	      3.54670555	      0.95949136	    -14.62375435	    -18.71747556	     14.05676155	     -0.40042670	      7.45024642	     -5.22840975	     -8.89051198	    -24.93519861	     14.64590083	     -0.13518947	    -10.02447800	     -1.47229527	     -4.44676956
      0.13000000	      1.20951819	     -2.53829650	      5.55070909	     -0.95062668	      0.94003177	     -0.62152305	      3.54882022	      0.89447832	    -14.60466057	    -18.72011052	     14.07855339	     -0.38567137	      7.39599400	     -5.15374963	     -8.91564133	    -24.84435160	     14.64741475	     -0.18111196	     -9.99712031	     -1.51646924	     -4.43726566
      0.14000000	      1.18544534	     -2.51351102	      5.54545930	     -0.95033849	      0.94002587	     -0.62202084	      3.55191136	      0.83556841	    -14.58878634	    -18.72291446	     14.09276396	     -0.37393280	      7.34734918	     -5.08411679	     -8.92984931	    -24.75934891	     14.65351416	     -0.21741752	     -9.96983311	     -1.55339746	     -4.42856762
      0.15000000	      1.15655618	     -2.51549269	      5.55322685	     -0.95003071	      0.94000686	     -0.62252573	      3.55045290	      0.80815129	    -14.59054575	    -18.70559462	     14.09895945	     -0.36988418	      7.31751237	     -5.04921115	     -8.95147425	    -24.69250600	     14.66093787	     -0.22811792	     -9.93166623	     -1.55673434	     -4.43237909
      0.16000000	      1.13062943	     -2.47103791	      5.54956524	     -0.94973574	      0.94000592	     -0.62304105	      3.55229842	      0.72604091	    -14.57099723	    -18.71024319	     14.11431606	     -0.35425935	      7.26471235	     -4.95265398	     -8.94576184	    -24.59983641	     14.66504741	     -0.26718208	     -9.90632025	     -1.61787726	     -4.41209808
      0.17000000	      1.09907698	     -2.47595522	      5.56292781	     -0.94941648	      0.93998597	     -0.62356266	      3.53991039	      0.70244322	    -14.58488566	    -18.66901899	     14.12129241	     -0.34925523	      7.24599219	     -4.92197230	     -8.96866438	    -24.54758150	     14.66992374	     -0.27695239	     -9.86586113	     -1.61850748	     -4.40593133
      0.18000000	      1.06461720	     -2.47304401	      5.57514495	     -0.94909516	      0.93996760	     -0.62409104	      3.52462256	      0.67051882	    -14.59340029	    -18.61912958	     14.12339831	     -0.34257120	      7.22762149	     -4.87897929	     -8.97776193	    -24.49191497	     14.67993483	     -0.28877303	     -9.82472844	     -1.62949953	     -4.39527258
      0.19000000	      1.02888318	     -2.47073546	      5.58678868	     -0.94877207	      0.93994969	     -0.62462581	      3.50489456	      0.63919816	    -14.60361366	    -18.56023123	     14.12371948	     -0.33410968	      7.21172189	     -4.83527641	     -8.98154794	    -24.43803719	     14.68890659	     -0.30292020	     -9.78431070	     -1.64043588	     -4.38328058
      0.20000000	      0.99261196	     -2.47061314	      5.60050000	     -0.94844208	      0.93993428	     -0.62516983	      3.47909519	      0.61109345	    -14.61563795	    -18.48884983	     14.12155473	     -0.32311009	      7.19856754	     -4.79348343	     -8.98187622	    -24.38789201	     14.69667539	     -0.32065477	     -9.74431383	     -1.64737829	     -4.37105376
      0.21000000	      0.95370376	     -2.47589144	      5.61234837	     -0.94811744	      0.93991725	     -0.62572179	      3.44770605	      0.58956664	    -14.63204207	    -18.39930185	     14.11692024	     -0.31108864	      7.19206302	     -4.75651322	     -8.98304090	    -24.34271458	     14.70485449	     -0.33890514	     -9.70569086	     -1.64751382	     -4.35810674
      0.22000000	      0.91160115	     -2.48550469	      5.62392782	     -0.94777210	      0.93989680	     -0.62627918	      3.40822810	      0.57411853	    -14.65124419	    -18.29000241	     14.10897432	     -0.29810090	      7.18966663	     -4.72422006	     -8.98418939	    -24.30077613	     14.71450430	     -0.35770988	     -9.66259143	     -1.64263091	     -4.34373874
      0.23000000	      0.86693100	     -2.49952059	      5.63527139	     -0.94740831	      0.93987329	     -0.62684570	      3.36090226	      0.56483301	    -14.67199799	    -18.16232178	     14.09739343	     -0.28430580	      7.19047733	     -4.69582533	     -8.98488026	    -24.26148273	     14.72570703	     -0.37713157	     -9.61577099	     -1.63256594	     -4.32804512
      0.24000000	      0.85694537	     -2.54509056	      5.66961291	     -0.94704381	      0.93991159	     -0.62744393	      3.24868388	      0.60142782	    -14.69670260	    -17.97666658	     14.01388644	     -0.21949550	      7.16566967	     -4.69981847	     -8.93997513	    -24.22967886	     14.75963044	     -0.47944493	     -9.61426385	     -1.57792908	     -4.33676593
      0.25000000	      0.80213290	     -2.56003761	      5.67311706	     -0.94665665	      0.93987419	     -0.62800981	      3.20217848	      0.59332513	    -14.72167059	    -17.83237155	     14.01555058	     -0.20899692	      7.17276903	     -4.67254559	     -8.95808335	    -24.18487965	     14.77195902	     -0.49105419	     -9.56133437	     -1.56992175	     -4.31563261
      0.26000000	      0.75999269	     -2.60034327	      5.69101262	     -0.94622998	      0.93986199	     -0.62860430	      3.11365140	      0.62460011	    -14.71748670	    -17.63540356	     13.97299947	     -0.18632825	      7.16778296	     -4.66784057	     -8.93528913	    -24.13966400	     14.79251598	     -0.52715012	     -9.51547603	     -1.52745872	     -4.31346784
